<?xml version="1.0" encoding="UTF-8"?>
<svg id="Calque_1" data-name="Calque 1" xmlns="http://www.w3.org/2000/svg" viewBox="0 0 500 500">
  <defs>
    <style>
      .cls-1 {
        fill: none;
      }

      .cls-1, .cls-2, .cls-3 {
        stroke: #000;
        stroke-miterlimit: 10;
        stroke-width: 2px;
      }

      .cls-2 {
        fill: #ff0092;
      }

      .cls-3 {
        fill: #fff;
      }
    </style>
  </defs>
  <polygon class="cls-2" points="250 40 284.82 74.93 330.36 55.99 349.17 101.58 398.49 101.51 398.42 150.83 444.01 169.64 425.07 215.18 460 250 425.07 284.82 444.01 330.36 398.42 349.17 398.49 398.49 349.17 398.42 330.36 444.01 284.82 425.07 250 460 215.18 425.07 169.64 444.01 150.83 398.42 101.51 398.49 101.58 349.17 55.99 330.36 74.93 284.82 40 250 74.93 215.18 55.99 169.64 101.58 150.83 101.51 101.51 150.83 101.58 169.64 55.99 215.18 74.93 250 40"/>
  <path class="cls-3" d="m333.01,317.81c-10.48,35.66-43.45,61.69-82.51,61.69s-72.75-26.6-82.85-62.86l2.03-4.03,20.08,30,20.09-30,20.09,40,20.09-40,20.09,40,20.1-40,20.09,30,20.09-30,2.61,5.2Z"/>
  <path class="cls-3" d="m336.5,293.5c0,7.93-1.07,15.6-3.09,22.89-.12.47-.25.95-.4,1.42l-2.61-5.2-20.09,30-20.09-30-20.1,40-20.09-40-20.09,40-20.09-40-20.09,30-20.08-30-2.03,4.03c-.14-.48-.26-.96-.38-1.44-1.81-6.93-2.77-14.2-2.77-21.7,0,0,47,38,85.5-10,40.5,48,86.5,10,86.5,10Z"/>
  <path class="cls-3" d="m316.21,235.38l13.61-45.02-11.36,15.7,10.82-35.77c-5.27-1.8-10.91-2.79-16.79-2.79-28.72,0-52,23.28-52,52s23.28,52,52,52,52-23.28,52-52c0-12.86-4.68-24.62-12.41-33.69l-35.88,49.58Z"/>
  <path class="cls-3" d="m221.78,180.42l-39.78,54.97,13.61-45.02-11.36,15.7,11.46-37.91c-2.68-.43-5.42-.65-8.22-.65-28.72,0-52,23.28-52,52s23.28,52,52,52,52-23.28,52-52c0-15.58-6.86-29.55-17.72-39.08Z"/>
  <path class="cls-1" d="m236,219.5c0-8.19,28-8.19,28,0"/>
  <line class="cls-1" x1="250.5" y1="238.3" x2="264" y2="274"/>
  <polyline class="cls-1" points="161 129.26 250.71 167.5 339 129.26"/>
  <polyline class="cls-1" points="147 290.5 134.25 276.5 121.51 290.5 108.75 276.5 96 290.5"/>
  <polyline class="cls-1" points="404 290.5 391.25 276.5 378.51 290.5 365.75 276.5 353 290.5"/>
</svg>